# xmcd CD database file
#
# Track frame offsets:
#	150
#	54111
#	80926
#	131986
#	176432
#	185362
#	223627
#	232588
#
# Disc length: 3887 seconds
#
# Revision: 0
# Processed by: cddbd v1.4PL0 Copyright (c) Steve Scherf et al.
# Submitted via: CDex 1.50
#
DISCID=660f2d08
DTITLE=Thom Gossage - Other Voices
DYEAR=2001
DGENRE=Jazz
TTITLE0=Mrs. B
TTITLE1=Sunday in Arnhem
TTITLE2=Leuven Country
TTITLE3=Half-Full
TTITLE4=Parade 
TTITLE5=Traditional
TTITLE6=Tread Softly
TTITLE7=Red Hook
EXTD=YEAR: 2001
EXTT0=
EXTT1=
EXTT2=
EXTT3=
EXTT4=
EXTT5=
EXTT6=
EXTT7=
PLAYORDER=
